<?xml version="1.0" encoding="utf-8"?><svg xmlns="http://www.w3.org/2000/svg" xmlns:xlink="http://www.w3.org/1999/xlink"><symbol viewBox="0 0 346.013 346.013" id="alarm" xmlns="http://www.w3.org/2000/svg"><path d="M261.752 242.918c-2.429-2.128-4.723-4.138-5.832-6.133a14.44 14.44 0 0 0-.32-.549c-4.244-6.792-5.837-23.742-6.788-33.866a613.388 613.388 0 0 0-.416-4.336c-.014-.138-.03-.274-.058-.482-2.181-15.25-7.596-37.241-21.01-55.398-9.281-12.563-20.811-21.047-34.316-25.263-1.391-9.796-9.832-17.353-20.006-17.353s-18.617 7.559-20.006 17.355c-13.504 4.213-25.035 12.697-34.316 25.262-13.414 18.154-18.83 40.146-21.01 55.396l-.016.122a8.752 8.752 0 0 0-.04.353c-.138 1.369-.275 2.82-.417 4.34-.952 10.129-2.545 27.082-6.828 33.934-.076.125-.147.25-.255.438-1.134 2.041-3.428 4.053-5.855 6.182-5.969 5.23-18.388 16.116-8.156 35.115a11.32 11.32 0 0 0 9.98 5.961h173.839c4.173 0 7.996-2.283 9.979-5.96 10.23-18.996-2.184-29.883-8.153-35.118zm-69 60.061h-40.214a5.552 5.552 0 0 0-4.262 1.981c-1.982 2.362-1.427 5.51-1.096 7.39l.026.151c2.188 12.541 13.028 21.644 25.776 21.644 12.984 0 24.125-9.685 25.912-22.511l.039-.21c.221-1.165.737-3.892-1.189-6.219-.689-.831-2.253-2.226-4.992-2.226zM101.631 24.448c-1.338-8.176-9.046-13.723-17.227-12.379C61.8 15.77 40.925 27.203 25.623 44.26 10.266 61.382 1.415 82.568.028 105.529c-.5 8.269 5.799 15.378 14.068 15.877.308.019.614.028.918.028 7.871 0 14.478-6.135 14.958-14.097.975-16.132 7.193-31.017 17.982-43.045 10.907-12.159 25.187-19.98 41.296-22.618 8.178-1.339 13.72-9.051 12.381-17.226zM83.133 128.277c.519-8.591 3.831-16.518 9.576-22.924 5.809-6.475 13.414-10.64 21.993-12.045 8.175-1.339 13.718-9.051 12.379-17.227-1.338-8.175-9.045-13.723-17.227-12.379-15.182 2.485-29.202 10.163-39.478 21.619-10.167 11.334-16.271 25.946-17.189 41.146-.5 8.269 5.799 15.378 14.068 15.877.308.019.613.028.918.028 7.871.001 14.479-6.134 14.96-14.095zm262.852-22.748c-1.387-22.961-10.238-44.147-25.596-61.27-15.301-17.057-36.176-28.489-58.78-32.19-8.172-1.346-15.889 4.203-17.227 12.379-1.339 8.175 4.203 15.888 12.379 17.227 16.109 2.639 30.39 10.459 41.296 22.617 10.79 12.029 17.008 26.914 17.982 43.046.48 7.962 7.087 14.097 14.959 14.097.304 0 .61-.01.918-.028 8.27-.5 14.569-7.61 14.069-15.878zm-70.349-20.208c-10.276-11.455-24.297-19.133-39.479-21.618-8.179-1.344-15.888 4.203-17.227 12.379s4.204 15.889 12.379 17.227c8.58 1.405 16.186 5.57 21.994 12.045 5.746 6.406 9.057 14.333 9.575 22.923.48 7.962 7.087 14.097 14.959 14.097.304 0 .609-.009.917-.027 8.27-.499 14.568-7.606 14.069-15.876-.915-15.201-7.02-29.814-17.187-41.15z"/></symbol><symbol viewBox="0 0 95.802 95.802" id="be-logo" xmlns="http://www.w3.org/2000/svg"><path d="M38.664 44.689s9.065-.673 9.065-11.306c0-10.632-7.417-15.819-16.813-15.819H0v59.414h30.916s18.873.597 18.873-17.536c.001 0 .824-14.753-11.125-14.753zM13.622 28.125h17.295s4.203 0 4.203 6.181-2.473 7.077-5.275 7.077H13.622V28.125zM30.119 66.42H13.622V50.541h17.294s6.264-.08 6.264 8.16c0 6.871-4.581 7.65-7.061 7.719zM62.18 21.064h24.514v7.317H62.18zm12.781 11.618c-22.848 0-22.828 22.826-22.828 22.826s-1.566 22.713 22.829 22.713c0 0 20.331 1.162 20.331-15.801H84.837s.349 6.391-9.526 6.391c0 0-10.455.699-10.455-10.34h30.785s3.368-25.789-20.68-25.789zm9.294 17.859H64.738s1.277-9.158 10.455-9.158c9.179-.001 9.062 9.158 9.062 9.158z"/></symbol><symbol viewBox="0 0 438.533 438.533" id="drib-logo" xmlns="http://www.w3.org/2000/svg"><path d="M409.133 109.203c-19.608-33.592-46.205-60.189-79.798-79.796C295.736 9.801 259.058 0 219.273 0c-39.781 0-76.47 9.801-110.063 29.407-33.595 19.604-60.192 46.201-79.8 79.796C9.801 142.8 0 179.489 0 219.267c0 39.78 9.804 76.463 29.407 110.062 19.607 33.592 46.204 60.189 79.799 79.798 33.597 19.605 70.283 29.407 110.063 29.407s76.47-9.802 110.065-29.407c33.593-19.602 60.189-46.206 79.795-79.798 19.603-33.596 29.403-70.284 29.403-110.062.001-39.782-9.8-76.472-29.399-110.064zM219.27 31.977c47.201 0 88.41 15.607 123.621 46.82l-3.569 4.993c-1.427 2.002-4.996 5.852-10.704 11.565-5.709 5.708-11.943 11.136-18.699 16.274-6.762 5.14-15.94 10.992-27.555 17.559-11.611 6.567-23.982 12.328-37.117 17.276-21.887-40.355-45.296-76.709-70.231-109.064 15.039-3.616 29.789-5.423 44.254-5.423zM72.524 103.06c18.271-23.026 40.537-40.73 66.806-53.1 23.601 31.405 46.82 67.381 69.662 107.921-57.862 15.227-115.532 22.841-173.014 22.838 6.094-28.739 18.275-54.628 36.546-77.659zM44.54 286.794c-8.376-21.412-12.563-43.923-12.563-67.527 0-2.666.098-4.665.286-5.996 68.905 0 132.955-8.848 192.149-26.553 6.092 11.8 11.136 22.364 15.133 31.693-.771.38-1.999.806-3.713 1.283-1.719.476-2.953.806-3.721.999l-10.561 3.711c-7.236 2.666-16.708 7.235-28.409 13.703-11.704 6.478-24.123 14.182-37.257 23.13-13.134 8.949-26.696 20.797-40.684 35.553-13.99 14.75-25.743 30.591-35.26 47.53-15.227-16.939-27.026-36.12-35.4-57.526zM219.27 406.56c-44.54 0-84.32-14.277-119.343-42.825l4.283 3.142c6.661-14.66 16.462-28.746 29.408-42.257 12.944-13.511 25.41-24.413 37.401-32.695 11.991-8.274 25.028-16.077 39.115-23.414 14.084-7.323 23.691-11.991 28.835-13.983 5.14-1.998 9.233-3.572 12.278-4.716l.568-.287h.575c18.647 48.916 31.977 96.313 39.968 142.184-23.602 9.902-47.961 14.848-73.088 14.851zm157.606-86.081c-14.086 21.796-31.696 39.834-52.817 54.104-7.81-43.776-19.985-88.415-36.549-133.902 37.877-5.907 76.8-3.142 116.771 8.274-4.189 25.886-13.326 49.732-27.405 71.524zm26.83-103.781a232.46 232.46 0 0 0-7.139-1.283c-2.854-.473-6.331-1.047-10.424-1.713-4.087-.666-8.662-1.283-13.702-1.855a549.162 549.162 0 0 0-16.136-1.569c-5.708-.478-11.8-.855-18.268-1.143a449.763 449.763 0 0 0-19.705-.428c-6.656 0-13.657.193-20.981.571a246.549 246.549 0 0 0-21.265 1.999c-.575-.953-1.287-2.524-2.143-4.714-.855-2.187-1.479-3.855-1.848-4.997a1895.128 1895.128 0 0 0-12.573-27.121c13.134-5.333 25.652-11.469 37.555-18.418 11.892-6.949 21.402-13.131 28.544-18.555a237.319 237.319 0 0 0 20.27-17.277c6.379-6.09 10.513-10.323 12.423-12.703a286.978 286.978 0 0 0 5.424-6.995l.287-.288c27.788 33.88 41.974 72.897 42.538 117.059l-2.857-.57z"/></symbol><symbol viewBox="0 0 430.113 430.114" id="fb-logo" xmlns="http://www.w3.org/2000/svg"><path d="M158.081 83.3v59.218h-43.385v72.412h43.385v215.183h89.122V214.936h59.805s5.601-34.721 8.316-72.685H247.54V92.74c0-7.4 9.717-17.354 19.321-17.354h48.557V.001h-66.021C155.878-.004 158.081 72.48 158.081 83.3z"/></symbol><symbol viewBox="-94 0 448 448" id="fragile" xmlns="http://www.w3.org/2000/svg"><path d="M229.016 443.887l-84.985-28.293A8.003 8.003 0 0 1 138.56 408V279.84a7.997 7.997 0 0 1 7.656-8 131.187 131.187 0 0 0 90.64-45.137 92.567 92.567 0 0 0 23.91-70.223L235.736 0H174.04l-40 40h52.52a7.992 7.992 0 0 1 7.386 4.937 8.005 8.005 0 0 1-1.73 8.72l-75.922 75.917c-3.121 3.133-8.191 3.137-11.324.016a8.011 8.011 0 0 1-.012-11.324L167.247 56h-52.52a8.003 8.003 0 0 1-7.399-4.934 8.004 8.004 0 0 1 1.734-8.722L151.415 0H25.383L.293 156.863a92.502 92.502 0 0 0 24 69.848 131.187 131.187 0 0 0 90.64 45.137 8 8 0 0 1 7.657 8V408a8.003 8.003 0 0 1-5.473 7.594L32.078 443.91A8.135 8.135 0 0 0 27.36 448h206.399a8.23 8.23 0 0 0-4.742-4.113zm0 0"/></symbol><symbol viewBox="0 0 512 512" id="g-plus-logo" xmlns="http://www.w3.org/2000/svg"><path d="M448 224v-64h-32v64h-64v32h64v64h32v-64h64v-32zm-288 0v64h90.528c-13.216 37.248-48.8 64-90.528 64-52.928 0-96-43.072-96-96s43.072-96 96-96c22.944 0 45.024 8.224 62.176 23.168l42.048-48.256C235.424 109.824 198.432 96 160 96 71.776 96 0 167.776 0 256s71.776 160 160 160 160-71.776 160-160v-32H160z"/></symbol><symbol viewBox="0 0 512 512" id="hand" xmlns="http://www.w3.org/2000/svg"><path d="M509.042 355.862l-24.409-24.21c-3.923-3.891-10.255-3.864-14.145.058-3.891 3.922-3.864 10.255.058 14.145l24.408 24.21a9.968 9.968 0 0 0 7.043 2.901 9.968 9.968 0 0 0 7.101-2.959c3.892-3.922 3.866-10.255-.056-14.145zm-49.28-48.981c-3.906-3.906-10.237-3.906-14.145 0l-.017.017c-3.906 3.906-3.897 10.231.009 14.137a9.96 9.96 0 0 0 7.067 2.926c2.564 0 5.13-.979 7.085-2.934 3.906-3.906 3.906-10.239.001-14.146z"/><path d="M374.493 353l97.028-97.027c14.695-14.696 14.695-38.608-.001-53.304a37.449 37.449 0 0 0-18.177-10.055 37.573 37.573 0 0 0 3.496-15.888c0-10.068-3.921-19.533-11.039-26.651-5.583-5.584-12.612-9.19-20.241-10.489 4.295-13.086 1.259-28.073-9.128-38.459a37.469 37.469 0 0 0-20.227-10.462 37.75 37.75 0 0 0 1.897-11.833c0-10.068-3.921-19.533-11.039-26.651-7.119-7.118-16.584-11.039-26.651-11.039-6.393 0-12.54 1.586-18.001 4.564l-.965-1.037c-12.542-13.478-30.295-21.207-48.704-21.207h-78.54c-5.523 0-10.002 4.479-10.002 10.002V46.58c0 5.249.888 10.359 2.586 15.164a37.636 37.636 0 0 0-14.465-2.866c-10.068 0-19.533 3.921-26.652 11.039-10.392 10.392-13.425 25.39-9.12 38.48a37.476 37.476 0 0 0-20.248 10.466c-7.118 7.119-11.039 16.584-11.039 26.651 0 4.076.653 8.05 1.89 11.811-7.62 1.303-14.642 4.907-20.22 10.486-11.477 11.477-13.99 28.577-7.539 42.516-6.831 1.561-13.105 5.001-18.183 10.078-14.695 14.695-14.695 38.607 0 53.303l19.954 19.953-98.234 98.232c-3.906 3.906-3.906 10.239 0 14.146 1.953 1.952 4.513 2.93 7.072 2.93s5.119-.977 7.072-2.93l99.182-99.182c5.615 3.204 11.987 4.918 18.628 4.918 10.067 0 19.532-3.921 26.651-11.04 7.734-7.733 11.392-18.02 10.985-28.172.507.021 1.014.036 1.521.036 9.65-.001 19.305-3.675 26.651-11.021 7.118-7.119 11.039-16.584 11.039-26.651 0-.509-.017-1.015-.037-1.521.501.02 1.002.036 1.504.036 9.651 0 19.304-3.674 26.651-11.021 7.118-7.119 11.039-16.584 11.039-26.651 0-.509-.017-1.015-.037-1.521.501.02 1.002.036 1.504.036 9.652 0 19.304-3.674 26.651-11.021 13.808-13.808 14.639-35.751 2.5-50.542l66.394-66.394c3.341-3.342 7.781-5.181 12.506-5.181s9.166 1.839 12.507 5.181a17.567 17.567 0 0 1 5.18 12.506c0 4.724-1.839 9.166-5.181 12.506l-9.789 9.789-35.518 35.518c-3.906 3.906-3.906 10.239 0 14.146 1.953 1.952 4.513 2.93 7.072 2.93s5.119-.977 7.072-2.93l35.518-35.518c6.895-6.896 18.116-6.897 25.013-.001 6.896 6.897 6.896 18.117 0 25.014l-9.79 9.79-25.728 25.728c-3.906 3.906-3.906 10.239 0 14.146 1.953 1.952 4.513 2.93 7.072 2.93s5.119-.977 7.072-2.93l25.728-25.728a17.566 17.566 0 0 1 12.506-5.181c4.725 0 9.166 1.839 12.507 5.181a17.567 17.567 0 0 1 5.18 12.506c0 4.724-1.839 9.166-5.181 12.506l-13.437 13.437-12.291 12.291c-3.906 3.906-3.906 10.239 0 14.146 1.953 1.952 4.513 2.93 7.072 2.93s5.119-.977 7.072-2.93l12.3-12.3c6.897-6.885 18.111-6.884 25.004.009 6.897 6.896 6.897 18.117 0 25.014l-97.028 97.027c-24.364 24.365-56.745 38.47-91.178 39.72a10 10 0 0 0-6.723 2.937l-89.632 89.964c-3.899 3.913-3.888 10.246.026 14.145a9.971 9.971 0 0 0 7.059 2.917 9.967 9.967 0 0 0 7.085-2.943l65.927-66.17c16.746 10.743 36.44 15.851 56.465 14.527l51.598 51.599a9.976 9.976 0 0 0 7.072 2.93 9.97 9.97 0 0 0 7.072-2.93c3.906-3.906 3.906-10.239 0-14.146l-54.86-54.866a10.008 10.008 0 0 0-7.89-2.897l-3.171.26a73.01 73.01 0 0 1-41.737-9.085l6.428-6.451c38.016-2.345 73.608-18.363 100.615-45.371zM147.39 286.591a17.568 17.568 0 0 1-12.506 5.181 17.563 17.563 0 0 1-12.506-5.181l-27.026-27.025c-6.896-6.896-6.896-18.117 0-25.014a17.568 17.568 0 0 1 12.507-5.181c4.724 0 9.166 1.839 12.506 5.181l27.026 27.025c6.895 6.896 6.895 18.117-.001 25.014zm39.159-39.159c-6.897 6.896-18.12 6.896-25.014 0l-27.026-27.026-13.438-13.438c-6.896-6.896-6.896-18.117 0-25.013a17.568 17.568 0 0 1 12.506-5.181c4.725 0 9.166 1.839 12.506 5.181l40.463 40.463h.001c3.342 3.342 5.181 7.783 5.181 12.507s-1.839 9.166-5.179 12.507zm39.157-39.158c-6.897 6.895-18.119 6.896-25.014 0l-50.253-50.253a17.567 17.567 0 0 1-5.18-12.506c0-4.724 1.839-9.166 5.181-12.506a17.633 17.633 0 0 1 12.506-5.172c4.526 0 9.051 1.722 12.498 5.164l22.904 22.904 27.356 27.356h.001a17.57 17.57 0 0 1 5.179 12.506 17.558 17.558 0 0 1-5.178 12.507zm39.158-39.158c-6.896 6.896-18.117 6.896-25.013 0l-50.253-50.253-.017-.016-9.773-9.773c-6.896-6.897-6.896-18.117 0-25.014a17.63 17.63 0 0 1 12.507-5.173c4.529 0 9.059 1.724 12.506 5.173l60.041 60.041a17.566 17.566 0 0 1 5.181 12.506 17.562 17.562 0 0 1-5.179 12.509zm2.63-50.672l-27.472-27.472a45.764 45.764 0 0 0 9.578 1.017h.221l27.448-.129c5.523-.026 9.981-4.525 9.955-10.049-.026-5.508-4.499-9.955-10.001-9.955h-.048l-27.448.129h-.124c-6.763 0-13.124-2.625-17.92-7.398-4.826-4.804-7.483-11.198-7.483-18.008v-3.114h68.538c12.875 0 25.29 5.405 34.062 14.831l.407.437-59.713 59.711z"/></symbol><symbol viewBox="0 0 430.117 430.117" id="lin-logo" xmlns="http://www.w3.org/2000/svg"><path d="M430.117 261.543V420.56h-92.188V272.193c0-37.271-13.334-62.707-46.703-62.707-25.473 0-40.632 17.142-47.301 33.724-2.432 5.928-3.058 14.179-3.058 22.477V420.56h-92.219s1.242-251.285 0-277.32h92.21v39.309c-.187.294-.43.611-.606.896h.606v-.896c12.251-18.869 34.13-45.824 83.102-45.824 60.673-.001 106.157 39.636 106.157 124.818zM52.183 9.558C20.635 9.558 0 30.251 0 57.463c0 26.619 20.038 47.94 50.959 47.94h.616c32.159 0 52.159-21.317 52.159-47.94-.606-27.212-20-47.905-51.551-47.905zM5.477 420.56h92.184V143.24H5.477v277.32z"/></symbol><symbol viewBox="0 0 612 612" id="tw-logo" xmlns="http://www.w3.org/2000/svg"><path d="M612 116.258a250.714 250.714 0 0 1-72.088 19.772c25.929-15.527 45.777-40.155 55.184-69.411-24.322 14.379-51.169 24.82-79.775 30.48-22.907-24.437-55.49-39.658-91.63-39.658-69.334 0-125.551 56.217-125.551 125.513 0 9.828 1.109 19.427 3.251 28.606-104.326-5.24-196.835-55.223-258.75-131.174-10.823 18.51-16.98 40.078-16.98 63.101 0 43.559 22.181 81.993 55.835 104.479a125.556 125.556 0 0 1-56.867-15.756v1.568c0 60.806 43.291 111.554 100.693 123.104-10.517 2.83-21.607 4.398-33.08 4.398-8.107 0-15.947-.803-23.634-2.333 15.985 49.907 62.336 86.199 117.253 87.194-42.947 33.654-97.099 53.655-155.916 53.655-10.134 0-20.116-.612-29.944-1.721 55.567 35.681 121.536 56.485 192.438 56.485 230.948 0 357.188-191.291 357.188-357.188l-.421-16.253c24.666-17.593 46.005-39.697 62.794-64.861z"/></symbol></svg>